<mxfile host="app.diagrams.net" modified="2023-06-16T19:05:41.879Z" agent="Mozilla/5.0 (Windows NT 10.0; Win64; x64) AppleWebKit/537.36 (KHTML, like Gecko) Chrome/114.0.0.0 Safari/537.36" version="21.4.0" etag="fDmh_sOizA3OrNgzgoDL" type="github">
  <diagram name="PÃ¡gina-1" id="bO7Y6FKwEJ-GmgI55XMO">
    <mxGraphModel>
      <root>
        <mxCell id="0" />
        <mxCell id="1" parent="0" />
      </root>
    </mxGraphModel>
  </diagram>
</mxfile>
